<svg width="100" height="80" viewBox="0 0 100 80" fill="none" xmlns="http://www.w3.org/2000/svg">
<g filter="url(#filter0_d_13_5)">
<path d="M37.36 6.216C36.016 6.024 34.528 5.928 32.896 5.928C31.264 5.928 29.608 6.384 27.928 7.296C26.296 8.208 25.48 9.408 25.48 10.896C25.48 13.392 26.368 14.64 28.144 14.64C28.864 14.64 29.44 14.88 29.872 15.36C30.304 15.84 30.52 16.44 30.52 17.16C30.52 17.88 30.256 18.48 29.728 18.96C29.2 19.392 28.48 19.608 27.568 19.608C25.888 19.608 24.448 18.912 23.248 17.52C22.096 16.08 21.52 14.4 21.52 12.48C21.52 10.512 22 8.76 22.96 7.224C23.92 5.64 25.168 4.392 26.704 3.48C29.728 1.752 33.16 0.887997 37 0.887997C41.656 0.887997 43.984 2.28 43.984 5.064C43.984 6.408 43.864 9.912 43.624 15.576C43.432 21.192 43.336 26.304 43.336 30.912C43.336 35.472 43.096 39.576 42.616 43.224C42.184 46.872 41.368 50.496 40.168 54.096C39.016 57.696 37.504 60.768 35.632 63.312C33.808 65.856 31.408 67.92 28.432 69.504C25.504 71.088 22.168 71.88 18.424 71.88C14.632 71.88 11.32 71.016 8.488 69.288C5.608 67.608 4.168 65.664 4.168 63.456C4.168 62.448 4.456 61.608 5.032 60.936C5.608 60.312 6.328 60 7.192 60C8.008 60 8.776 60.24 9.496 60.72C10.168 61.2 10.912 61.848 11.728 62.664C14.896 65.928 18.4 67.56 22.24 67.56C24.88 67.56 27.232 66.552 29.296 64.536C31.36 62.52 33.016 59.784 34.264 56.328C36.712 49.416 37.936 41.208 37.936 31.704C37.936 18.312 37.744 9.816 37.36 6.216ZM86.2306 29.4L74.1346 29.04C72.7906 29.04 68.9506 29.136 62.6146 29.328C61.6546 31.344 60.3826 34.104 58.7986 37.608C54.1426 47.976 49.5346 56.616 44.9746 63.528C41.2786 69.096 38.4946 71.88 36.6226 71.88C35.8066 71.88 35.1346 71.592 34.6066 71.016C34.0786 70.488 33.8146 69.744 33.8146 68.784C33.8146 67.824 34.3426 66.696 35.3986 65.4C36.4066 64.104 37.7026 62.688 39.2866 61.152C40.8226 59.664 42.8626 57.168 45.4066 53.664C47.9026 50.16 50.3026 46.128 52.6066 41.568C52.9906 40.848 54.9346 36.792 58.4386 29.4H58.0786C57.3106 29.4 56.6386 29.184 56.0626 28.752C55.5346 28.272 55.2706 27.624 55.2706 26.808C55.2706 25.992 55.5586 25.32 56.1346 24.792C56.7106 24.264 57.4546 24 58.3666 24C59.3266 24 60.2386 24.024 61.1026 24.072C65.5186 15.048 69.5506 8.808 73.1986 5.352C64.6546 6.024 60.0226 6.36 59.3026 6.36C58.6306 6.36 57.9826 6.12 57.3586 5.64C56.7826 5.16 56.4946 4.536 56.4946 3.768C56.4946 2.952 56.7826 2.28 57.3586 1.752C57.9826 1.176 58.6546 0.887997 59.3746 0.887997L75.0706 1.32L92.1346 0.887997C92.9986 0.887997 93.6946 1.152 94.2226 1.68C94.7506 2.208 95.0146 2.904 95.0146 3.768C95.0146 4.584 94.7266 5.232 94.1506 5.712C93.6226 6.144 92.9266 6.36 92.0626 6.36H90.3346C90.3346 14.04 90.6466 20.976 91.2706 27.168C91.8946 33.36 92.5186 38.136 93.1426 41.496C93.7666 44.856 94.0786 46.992 94.0786 47.904C94.0786 48.768 93.7906 49.584 93.2146 50.352C92.6866 51.072 91.9666 51.432 91.0546 51.432C90.1426 51.432 89.3506 51.096 88.6786 50.424C88.0066 49.752 87.6226 48.792 87.5266 47.544L86.2306 29.4ZM84.9346 5.496L82.7746 5.424C77.0626 6.144 71.2066 12.384 65.2066 24.144C70.2946 24.24 73.5106 24.288 74.8546 24.288C76.2466 24.288 79.9186 24.192 85.8706 24C85.2466 15.744 84.9346 9.576 84.9346 5.496Z" fill="white"/>
</g>
<defs>
<filter id="filter0_d_13_5" x="0.167969" y="0.888" width="98.8466" height="78.992" filterUnits="userSpaceOnUse" color-interpolation-filters="sRGB">
<feFlood flood-opacity="0" result="BackgroundImageFix"/>
<feColorMatrix in="SourceAlpha" type="matrix" values="0 0 0 0 0 0 0 0 0 0 0 0 0 0 0 0 0 0 127 0" result="hardAlpha"/>
<feOffset dy="4"/>
<feGaussianBlur stdDeviation="2"/>
<feComposite in2="hardAlpha" operator="out"/>
<feColorMatrix type="matrix" values="0 0 0 0 0 0 0 0 0 0 0 0 0 0 0 0 0 0 0.25 0"/>
<feBlend mode="normal" in2="BackgroundImageFix" result="effect1_dropShadow_13_5"/>
<feBlend mode="normal" in="SourceGraphic" in2="effect1_dropShadow_13_5" result="shape"/>
</filter>
</defs>
</svg>
